<svg width="24" height="24" viewBox="0 0 24 24" fill="none" xmlns="http://www.w3.org/2000/svg">
<path d="M10.5 1.5C8.93858 1.49947 7.40388 1.90519 6.04671 2.67727C4.68953 3.44936 3.55657 4.56125 2.75915 5.9037C1.96173 7.24615 1.52729 8.77296 1.49851 10.3341C1.46973 11.8953 1.84761 13.4371 2.59501 14.808L1.53001 18.543C1.49253 18.6742 1.49154 18.813 1.52712 18.9447C1.56271 19.0764 1.63353 19.1959 1.73196 19.2903C1.8304 19.3847 1.95272 19.4505 2.08576 19.4806C2.2188 19.5107 2.35753 19.5039 2.48701 19.461L5.99401 18.2925C6.69601 18.699 7.45801 19.0125 8.26351 19.2195C8.0007 18.6538 7.80342 18.06 7.67551 17.4495C7.262 17.2815 6.8644 17.0766 6.48751 16.8375C6.39347 16.7779 6.28733 16.7399 6.1768 16.7265C6.06628 16.713 5.95413 16.7243 5.84851 16.7595L3.36151 17.589L4.12651 14.9175C4.15438 14.8191 4.16184 14.7161 4.14843 14.6147C4.13501 14.5133 4.10101 14.4158 4.04851 14.328C3.52541 13.4404 3.19079 12.4546 3.06549 11.432C2.9402 10.4095 3.02693 9.37202 3.32027 8.38443C3.61361 7.39684 4.10728 6.48028 4.77048 5.69189C5.43368 4.90351 6.2522 4.26022 7.17499 3.80213C8.09777 3.34404 9.10504 3.08098 10.134 3.02935C11.1629 2.97773 12.1915 3.13864 13.1555 3.50206C14.1195 3.86548 14.9983 4.42361 15.7371 5.14165C16.4759 5.85969 17.0588 6.72223 17.4495 7.6755C18.06 7.80346 18.6538 8.00074 19.2195 8.2635C18.7225 6.32847 17.5961 4.6137 16.0175 3.38922C14.4389 2.16474 12.4978 1.50011 10.5 1.5ZM22.5 15.75C22.5 16.6364 22.3254 17.5142 21.9862 18.3331C21.647 19.1521 21.1498 19.8962 20.523 20.523C19.8962 21.1498 19.1521 21.647 18.3331 21.9862C17.5142 22.3254 16.6364 22.5 15.75 22.5C14.8636 22.5 13.9858 22.3254 13.1669 21.9862C12.3479 21.647 11.6038 21.1498 10.977 20.523C10.3502 19.8962 9.85304 19.1521 9.51382 18.3331C9.1746 17.5142 9.00001 16.6364 9.00001 15.75C9.00001 13.9598 9.71117 12.2429 10.977 10.977C12.2429 9.71116 13.9598 9 15.75 9C17.5402 9 19.2571 9.71116 20.523 10.977C21.7888 12.2429 22.5 13.9598 22.5 15.75ZM14.406 11.844C14.3363 11.7742 14.2536 11.7187 14.1625 11.6809C14.0713 11.6431 13.9737 11.6237 13.875 11.6237C13.7764 11.6237 13.6787 11.6431 13.5876 11.6809C13.4964 11.7187 13.4137 11.7742 13.344 11.844L10.719 14.469C10.6493 14.5382 10.5939 14.6204 10.556 14.7111C10.5181 14.8017 10.4985 14.8989 10.4982 14.9971C10.4979 15.0954 10.517 15.1927 10.5544 15.2835C10.5918 15.3743 10.6467 15.4569 10.716 15.5265L13.344 18.156C13.4848 18.2968 13.6758 18.3759 13.875 18.3759C14.0742 18.3759 14.2652 18.2968 14.406 18.156C14.5468 18.0152 14.626 17.8242 14.626 17.625C14.626 17.4258 14.5468 17.2348 14.406 17.094L13.0605 15.75H15.375C16.824 15.75 18 16.926 18 18.375V18.75C18 18.9489 18.079 19.1397 18.2197 19.2803C18.3603 19.421 18.5511 19.5 18.75 19.5C18.9489 19.5 19.1397 19.421 19.2803 19.2803C19.421 19.1397 19.5 18.9489 19.5 18.75V18.375C19.5 17.281 19.0654 16.2318 18.2918 15.4582C17.5182 14.6846 16.469 14.25 15.375 14.25H13.0605L14.406 12.906C14.4759 12.8363 14.5313 12.7536 14.5691 12.6625C14.6069 12.5713 14.6263 12.4737 14.6263 12.375C14.6263 12.2764 14.6069 12.1787 14.5691 12.0876C14.5313 11.9964 14.4759 11.9137 14.406 11.844Z" fill="white"/>
</svg>
