<svg width="24" height="24" viewBox="0 0 24 24" fill="none" xmlns="http://www.w3.org/2000/svg">
<path d="M19.0005 8.9625L19.905 8.058C20.0267 7.93778 20.1808 7.85549 20.3484 7.82114C20.516 7.78679 20.69 7.80185 20.8492 7.8645L21.9517 8.304C22.1127 8.36959 22.2507 8.48137 22.3483 8.62525C22.4458 8.76913 22.4986 8.93867 22.5 9.1125V11.1315C22.498 11.3637 22.4039 11.5856 22.2384 11.7485C22.0729 11.9113 21.8495 12.0018 21.6172 12L21.5797 11.9985C13.8577 11.5185 12.3 4.977 12.0052 2.4735C11.9925 2.35915 12.0025 2.24341 12.0345 2.1329C12.0665 2.02239 12.12 1.91927 12.1918 1.82942C12.2637 1.73958 12.3526 1.66477 12.4534 1.60928C12.5542 1.55379 12.6649 1.51869 12.7792 1.506C12.8131 1.50199 12.8472 1.49998 12.8812 1.5H14.8312C15.0052 1.50063 15.1749 1.55323 15.3187 1.65106C15.4625 1.74888 15.5738 1.88746 15.6382 2.049L16.0785 3.1515C16.1432 3.31023 16.1598 3.48452 16.126 3.65259C16.0923 3.82066 16.0097 3.97506 15.8887 4.0965L14.9842 5.001C14.9842 5.001 15.5047 8.526 19.0005 8.9625Z" fill="white"/>
<path d="M12 22.5H10.5V18.75C10.4994 18.1534 10.2622 17.5815 9.84033 17.1597C9.4185 16.7378 8.84655 16.5006 8.25 16.5H5.25C4.65345 16.5006 4.0815 16.7378 3.65967 17.1597C3.23784 17.5815 3.0006 18.1534 3 18.75V22.5H1.5V18.75C1.50119 17.7558 1.89666 16.8027 2.59966 16.0997C3.30267 15.3967 4.2558 15.0012 5.25 15H8.25C9.2442 15.0012 10.1973 15.3967 10.9003 16.0997C11.6033 16.8027 11.9988 17.7558 12 18.75V22.5Z" fill="white"/>
<path d="M6.75 7.5C7.19501 7.5 7.63002 7.63196 8.00004 7.87919C8.37005 8.12643 8.65843 8.47783 8.82873 8.88896C8.99903 9.3001 9.04359 9.7525 8.95677 10.189C8.86995 10.6254 8.65566 11.0263 8.34099 11.341C8.02632 11.6557 7.62541 11.87 7.18896 11.9568C6.7525 12.0436 6.3001 11.999 5.88896 11.8287C5.47783 11.6584 5.12643 11.37 4.8792 11C4.63196 10.63 4.5 10.195 4.5 9.75C4.5 9.15326 4.73705 8.58097 5.15901 8.15901C5.58097 7.73705 6.15326 7.5 6.75 7.5ZM6.75 6C6.00832 6 5.2833 6.21993 4.66661 6.63199C4.04993 7.04404 3.56928 7.62971 3.28545 8.31494C3.00162 9.00016 2.92736 9.75416 3.07206 10.4816C3.21675 11.209 3.5739 11.8772 4.09835 12.4017C4.6228 12.9261 5.29098 13.2833 6.01841 13.4279C6.74584 13.5726 7.49984 13.4984 8.18506 13.2145C8.87029 12.9307 9.45596 12.4501 9.86801 11.8334C10.2801 11.2167 10.5 10.4917 10.5 9.75C10.5 9.25754 10.403 8.76991 10.2146 8.31494C10.0261 7.85997 9.74987 7.44657 9.40165 7.09835C9.05343 6.75013 8.64004 6.47391 8.18506 6.28545C7.73009 6.097 7.24246 6 6.75 6Z" fill="white"/>
</svg>
